<svg width="28" height="28" viewBox="0 0 28 28" fill="none" xmlns="http://www.w3.org/2000/svg">
<path d="M14 22.1667C13.6695 22.1667 13.3926 22.0547 13.1694 21.8307C12.9454 21.6075 12.8334 21.3306 12.8334 21V15.1667H7.00004C6.66949 15.1667 6.39221 15.0547 6.16821 14.8307C5.94499 14.6075 5.83337 14.3306 5.83337 14C5.83337 13.6695 5.94499 13.3922 6.16821 13.1682C6.39221 12.945 6.66949 12.8333 7.00004 12.8333H12.8334V7.00001C12.8334 6.66945 12.9454 6.39218 13.1694 6.16818C13.3926 5.94495 13.6695 5.83334 14 5.83334C14.3306 5.83334 14.6079 5.94495 14.8319 6.16818C15.0551 6.39218 15.1667 6.66945 15.1667 7.00001V12.8333H21C21.3306 12.8333 21.6075 12.945 21.8307 13.1682C22.0547 13.3922 22.1667 13.6695 22.1667 14C22.1667 14.3306 22.0547 14.6075 21.8307 14.8307C21.6075 15.0547 21.3306 15.1667 21 15.1667H15.1667V21C15.1667 21.3306 15.0551 21.6075 14.8319 21.8307C14.6079 22.0547 14.3306 22.1667 14 22.1667Z" fill="white"/>
</svg>
