<svg width="30" height="30" viewBox="0 0 30 30" fill="none" xmlns="http://www.w3.org/2000/svg">
<path d="M20.0139 4.37439C20.1775 4.54183 20.269 4.76659 20.269 5.00064C20.269 5.23469 20.1775 5.45946 20.0139 5.62689L10.8771 15L20.0139 24.3713C20.1775 24.5387 20.269 24.7635 20.269 24.9975C20.269 25.2316 20.1775 25.4563 20.0139 25.6238C19.9345 25.7054 19.8394 25.7703 19.7344 25.8146C19.6294 25.8589 19.5166 25.8817 19.4027 25.8817C19.2887 25.8817 19.1759 25.8589 19.071 25.8146C18.966 25.7703 18.8709 25.7054 18.7914 25.6238L9.07519 15.6544C8.90454 15.4793 8.80904 15.2445 8.80904 15C8.80904 14.7555 8.90454 14.5207 9.07519 14.3456L18.7914 4.37627C18.8709 4.29462 18.966 4.22973 19.071 4.18542C19.1759 4.14111 19.2887 4.11829 19.4027 4.11829C19.5166 4.11829 19.6294 4.14111 19.7344 4.18542C19.8394 4.22973 19.9345 4.29462 20.0139 4.37627V4.37439Z" fill="white"/>
</svg>
