<svg width="12" height="12" viewBox="0 0 12 12" fill="none" xmlns="http://www.w3.org/2000/svg">
<path d="M2.768 10.943C2.84889 10.9851 2.9397 11.0043 3.03069 10.9987C3.12169 10.9931 3.20943 10.9627 3.2845 10.911L9.7845 6.41101C9.85092 6.365 9.9052 6.30357 9.94269 6.23199C9.98018 6.16041 9.99976 6.08081 9.99976 6.00001C9.99976 5.91921 9.98018 5.83961 9.94269 5.76803C9.9052 5.69646 9.85092 5.63503 9.7845 5.58901L3.2845 1.08901C3.20957 1.03674 3.12173 1.00604 3.03055 1.00027C2.93937 0.99449 2.84836 1.01386 2.76743 1.05625C2.6865 1.09865 2.61877 1.16246 2.57161 1.24071C2.52445 1.31896 2.49968 1.40865 2.5 1.50001V10.5C2.49999 10.5913 2.52495 10.6808 2.5722 10.7589C2.61944 10.837 2.68715 10.9007 2.768 10.943ZM3.5 2.45451L8.6215 6.00001L3.5 9.54551V2.45451Z" fill="white"/>
</svg>
