<svg width="148" height="147" viewBox="0 0 148 147" fill="none" xmlns="http://www.w3.org/2000/svg">
<g opacity="0.02">
<path d="M49.3333 3.86841C39.1892 3.86841 30.8333 11.9589 30.8333 21.7809C30.8333 23.8886 31.2835 25.8649 31.9927 27.7517H0V63.5766H6.16667V141.197H141.833V63.5766H148V27.7517H116.007C116.716 25.8649 117.167 23.8886 117.167 21.7809C117.167 11.9589 108.811 3.86841 98.6667 3.86841C87.875 3.86841 80.5367 11.8096 75.7267 18.4253C75.0915 19.309 74.5673 20.1688 74 21.0345C73.4327 20.1688 72.9085 19.303 72.2733 18.4193C67.4633 11.8096 60.125 3.86841 49.3333 3.86841ZM49.3333 15.8101C53.1937 15.8101 58.1887 19.8105 62.0552 25.1425C62.9925 26.4381 62.8568 26.5157 63.5968 27.7517H49.3333C45.8492 27.7517 43.1667 25.1544 43.1667 21.7809C43.1667 18.4074 45.8492 15.8101 49.3333 15.8101ZM98.6667 15.8101C102.151 15.8101 104.833 18.4074 104.833 21.7809C104.833 25.1544 102.151 27.7517 98.6667 27.7517H84.4032C85.1432 26.5217 85.0075 26.4381 85.9448 25.1365C89.8113 19.8224 94.8125 15.8101 98.6667 15.8101ZM12.3333 39.6933H135.667V51.635H80.1667V45.6642H67.8333V51.635H12.3333V39.6933ZM18.5 63.5766H129.5V129.256H80.1667V69.5475H67.8333V129.256H18.5V63.5766Z" fill="white"/>
</g>
</svg>
