<svg width="30" height="30" viewBox="0 0 30 30" fill="none" xmlns="http://www.w3.org/2000/svg">
<path d="M9.98606 4.37439C9.82251 4.54183 9.73096 4.76659 9.73096 5.00064C9.73096 5.23469 9.82251 5.45946 9.98606 5.62689L19.1229 15L9.98606 24.3713C9.82251 24.5387 9.73096 24.7635 9.73096 24.9975C9.73096 25.2316 9.82251 25.4563 9.98606 25.6238C10.0655 25.7054 10.1606 25.7703 10.2656 25.8146C10.3706 25.8589 10.4834 25.8817 10.5973 25.8817C10.7113 25.8817 10.8241 25.8589 10.929 25.8146C11.034 25.7703 11.1291 25.7054 11.2086 25.6238L20.9248 15.6544C21.0955 15.4793 21.191 15.2445 21.191 15C21.191 14.7555 21.0955 14.5207 20.9248 14.3456L11.2086 4.37627C11.1291 4.29462 11.034 4.22973 10.929 4.18542C10.8241 4.14111 10.7113 4.11829 10.5973 4.11829C10.4834 4.11829 10.3706 4.14111 10.2656 4.18542C10.1606 4.22973 10.0655 4.29462 9.98606 4.37627V4.37439Z" fill="white"/>
</svg>
