<svg width="17" height="17" viewBox="0 0 17 17" fill="none" xmlns="http://www.w3.org/2000/svg">
<path d="M6.375 11.475L3.89583 8.99585C3.831 8.93023 3.7538 8.87813 3.66868 8.84257C3.58357 8.80701 3.49224 8.7887 3.4 8.7887C3.30776 8.7887 3.21643 8.80701 3.13132 8.84257C3.0462 8.87813 2.96899 8.93023 2.90417 8.99585C2.83855 9.06068 2.78645 9.13789 2.75089 9.223C2.71533 9.30811 2.69702 9.39944 2.69702 9.49168C2.69702 9.58393 2.71533 9.67525 2.75089 9.76036C2.78645 9.84548 2.83855 9.92269 2.90417 9.98752L5.87208 12.9554C6.14833 13.2317 6.59458 13.2317 6.87083 12.9554L14.3792 5.45418C14.4448 5.38935 14.4969 5.31214 14.5324 5.22703C14.568 5.14192 14.5863 5.05059 14.5863 4.95835C14.5863 4.86611 14.568 4.77478 14.5324 4.68967C14.4969 4.60455 14.4448 4.52734 14.3792 4.46252C14.3143 4.3969 14.2371 4.3448 14.152 4.30924C14.0669 4.27368 13.9756 4.25537 13.8833 4.25537C13.7911 4.25537 13.6998 4.27368 13.6147 4.30924C13.5295 4.3448 13.4523 4.3969 13.3875 4.46252L6.375 11.475Z" fill="black"/>
</svg>
