<svg width="168" height="168" viewBox="0 0 168 168" fill="none" xmlns="http://www.w3.org/2000/svg">
<g opacity="0.02">
<path d="M42.3305 2.38227C43.9036 3.90961 44.7872 5.98 44.7872 8.13864C44.7872 10.2973 43.9036 12.3677 42.3305 13.895L28.6659 27.1455H97.9969C111.842 27.1455 125.377 31.1267 136.889 38.5857C148.4 46.0446 157.373 56.6463 162.671 69.0501C167.97 81.4538 169.356 95.1026 166.655 108.27C163.954 121.438 157.287 133.534 147.497 143.027C137.706 152.52 125.233 158.985 111.654 161.605C98.0746 164.224 83.9993 162.88 71.2079 157.742C58.4165 152.604 47.4835 143.903 39.7915 132.74C32.0994 121.577 27.9938 108.453 27.9938 95.0273C27.9938 92.8669 28.8789 90.795 30.4542 89.2673C32.0296 87.7397 34.1663 86.8815 36.3942 86.8815C38.6221 86.8815 40.7588 87.7397 42.3342 89.2673C43.9095 90.795 44.7946 92.8669 44.7946 95.0273C44.7946 105.231 47.9148 115.205 53.7608 123.689C59.6067 132.173 67.9158 138.786 77.6373 142.69C87.3587 146.595 98.0559 147.617 108.376 145.626C118.696 143.636 128.176 138.722 135.617 131.507C143.057 124.292 148.124 115.1 150.177 105.092C152.23 95.0845 151.176 84.7115 147.149 75.2846C143.123 65.8577 136.304 57.8005 127.555 52.1317C118.805 46.4629 108.519 43.4372 97.9969 43.4372H28.6659L42.3305 56.6877C43.8143 58.2318 44.6221 60.2742 44.5837 62.3846C44.5453 64.4949 43.6637 66.5084 42.1246 68.0008C40.5855 69.4933 38.5091 70.3482 36.3329 70.3854C34.1566 70.4226 32.0504 69.6393 30.4579 68.2004L2.45672 41.0477C0.883602 39.5204 0 37.45 0 35.2913C0 33.1327 0.883602 31.0623 2.45672 29.535L30.4579 2.38227C32.033 0.856827 34.1681 0 36.3942 0C38.6203 0 40.7554 0.856827 42.3305 2.38227Z" fill="white"/>
</g>
</svg>
