<svg width="24" height="24" viewBox="0 0 24 24" fill="none" xmlns="http://www.w3.org/2000/svg">
<path d="M9 16.2L5.5 12.7C5.40847 12.6074 5.29947 12.5338 5.17931 12.4836C5.05915 12.4334 4.93022 12.4076 4.8 12.4076C4.66977 12.4076 4.54084 12.4334 4.42068 12.4836C4.30052 12.5338 4.19152 12.6074 4.1 12.7C4.00736 12.7915 3.9338 12.9005 3.8836 13.0207C3.83341 13.1409 3.80756 13.2698 3.80756 13.4C3.80756 13.5302 3.83341 13.6592 3.8836 13.7793C3.9338 13.8995 4.00736 14.0085 4.1 14.1L8.29 18.29C8.68 18.68 9.31 18.68 9.7 18.29L20.3 7.70001C20.3926 7.60848 20.4662 7.49948 20.5164 7.37932C20.5666 7.25916 20.5924 7.13023 20.5924 7.00001C20.5924 6.86978 20.5666 6.74085 20.5164 6.62069C20.4662 6.50053 20.3926 6.39153 20.3 6.30001C20.2085 6.20737 20.0995 6.13382 19.9793 6.08362C19.8592 6.03342 19.7302 6.00757 19.6 6.00757C19.4698 6.00757 19.3408 6.03342 19.2207 6.08362C19.1005 6.13382 18.9915 6.20737 18.9 6.30001L9 16.2Z" fill="white"/>
</svg>
