<svg width="168" height="168" viewBox="0 0 168 168" fill="none" xmlns="http://www.w3.org/2000/svg">
<g opacity="0.02">
<path d="M105.945 45.885C105.201 45.4538 104.38 45.1742 103.527 45.0623C102.675 44.9503 101.809 45.0083 100.979 45.2328C100.15 45.4574 99.3725 45.844 98.693 46.3704C98.0134 46.8969 97.4449 47.5527 97.0201 48.3L59.5351 113.19C59.1039 113.934 58.8243 114.755 58.7124 115.608C58.6004 116.46 58.6584 117.326 58.8829 118.156C59.1075 118.985 59.4941 119.763 60.0205 120.442C60.547 121.122 61.2028 121.69 61.9501 122.115C62.9278 122.712 64.0608 123.004 65.2051 122.955C66.3512 122.95 67.4764 122.648 68.4703 122.077C69.4643 121.506 70.2929 120.687 70.8751 119.7L108.36 54.81C108.806 54.0701 109.097 53.2477 109.217 52.3923C109.336 51.5369 109.282 50.6662 109.056 49.8324C108.83 48.9987 108.439 48.2192 107.904 47.5408C107.369 46.8625 106.703 46.2992 105.945 45.885ZM77.1751 67.515C77.403 61.5337 75.2572 55.7048 71.2054 51.299C67.1537 46.8932 61.5245 44.2678 55.5451 43.995C49.5567 44.2679 43.917 46.8898 39.8485 51.2924C35.7801 55.6951 33.6105 61.5237 33.8101 67.515C33.5822 73.5241 35.7391 79.3797 39.8105 83.8052C43.882 88.2307 49.5378 90.8672 55.5451 91.14C61.5434 90.8675 67.1889 88.2274 71.2437 83.7987C75.2984 79.37 77.4315 73.5141 77.1751 67.515ZM55.5451 78.015C53.0281 77.7238 50.7229 76.4657 49.1163 74.5065C47.5097 72.5472 46.7276 70.0402 46.9351 67.515C46.7002 64.984 47.4723 62.4625 49.084 60.497C50.6957 58.5315 53.0172 57.2804 55.5451 57.015C58.0653 57.2796 60.3771 58.5345 61.9721 60.5036C63.5671 62.4727 64.3146 64.9948 64.0501 67.515C64.2865 70.0296 63.5287 72.5369 61.9389 74.4995C60.3492 76.4621 58.054 77.7241 55.5451 78.015ZM112.455 76.86C106.476 77.1328 100.847 79.7582 96.7948 84.164C92.743 88.5698 90.5972 94.3987 90.8251 100.38C90.5687 106.379 92.7018 112.235 96.7565 116.664C100.811 121.092 106.457 123.732 112.455 124.005C118.462 123.732 124.118 121.096 128.19 116.67C132.261 112.245 134.418 106.389 134.19 100.38C134.39 94.3887 132.22 88.5601 128.152 84.1575C124.083 79.7548 118.444 77.1329 112.455 76.86ZM112.455 110.88C109.946 110.589 107.651 109.327 106.061 107.365C104.471 105.402 103.714 102.895 103.95 100.38C103.714 97.8654 104.471 95.3582 106.061 93.3955C107.651 91.4329 109.946 90.1709 112.455 89.88C114.983 90.1454 117.304 91.3965 118.916 93.362C120.528 95.3275 121.3 97.8491 121.065 100.38C121.273 102.905 120.49 105.412 118.884 107.371C117.277 109.331 114.972 110.589 112.455 110.88Z" fill="white"/>
<path d="M84 5.25C62.4226 4.57056 41.4574 12.4819 25.7081 27.2469C9.95873 42.012 0.712619 62.4236 0 84C0.712619 105.576 9.95873 125.988 25.7081 140.753C41.4574 155.518 62.4226 163.429 84 162.75C105.577 163.429 126.543 155.518 142.292 140.753C158.041 125.988 167.287 105.576 168 84C167.287 62.4236 158.041 42.012 142.292 27.2469C126.543 12.4819 105.577 4.57056 84 5.25ZM84 149.625C65.9103 150.279 48.298 143.741 35.0158 131.443C21.7337 119.145 13.8628 102.086 13.125 84C13.8628 65.9135 21.7337 48.8554 35.0158 36.5571C48.298 24.2588 65.9103 17.7214 84 18.375C102.09 17.7214 119.702 24.2588 132.984 36.5571C146.266 48.8554 154.137 65.9135 154.875 84C154.137 102.086 146.266 119.145 132.984 131.443C119.702 143.741 102.09 150.279 84 149.625Z" fill="white"/>
</g>
</svg>
