<svg width="180" height="180" viewBox="0 0 180 180" fill="none" xmlns="http://www.w3.org/2000/svg">
<g opacity="0.02">
<path d="M176.633 43.1315L111.626 8.18408C110.666 7.66792 109.588 7.39726 108.492 7.39726C107.397 7.39726 106.319 7.66792 105.359 8.18408L40.3517 43.1315C39.3324 43.68 38.4825 44.4858 37.8906 45.4649C37.2986 46.444 36.9863 47.5604 36.9863 48.6976C36.9863 49.8349 37.2986 50.9513 37.8906 51.9304C38.4825 52.9095 39.3324 53.7153 40.3517 54.2638L101.991 87.4003V155.51L82.2553 144.898L75.9886 156.024L105.359 171.814C106.318 172.331 107.396 172.603 108.492 172.603C109.588 172.603 110.666 172.331 111.626 171.814L176.633 136.867C177.652 136.318 178.503 135.513 179.095 134.534C179.687 133.555 180 132.438 180 131.301V48.6976C180 47.5602 179.687 46.4436 179.095 45.4645C178.503 44.4855 177.652 43.6797 176.633 43.1315ZM108.492 21.0066L160.01 48.6976L108.492 76.3887L56.974 48.6976L108.492 21.0066ZM166.999 127.545L114.993 155.503V87.3939L166.999 59.436V127.545Z" fill="white"/>
<path d="M50.9589 91.2329H0V78.9041H50.9589V91.2329ZM63.6986 140.548H12.7397V128.219H63.6986V140.548ZM76.4384 115.89H25.4795V103.562H76.4384V115.89Z" fill="white"/>
</g>
</svg>
