<svg width="167" height="34" viewBox="0 0 167 34" fill="none" xmlns="http://www.w3.org/2000/svg">
<path d="M15.236 25.308C12.164 25.308 9.536 24.888 7.352 24.048C5.168 23.184 3.5 21.936 2.348 20.304C1.196 18.672 0.619995 16.692 0.619995 14.364C0.619995 12.036 1.196 10.056 2.348 8.42401C3.5 6.79201 5.168 5.54401 7.352 4.68001C9.536 3.81601 12.164 3.38401 15.236 3.38401C15.284 3.38401 15.368 3.38401 15.488 3.38401C15.632 3.38401 15.764 3.38401 15.884 3.38401C16.028 3.38401 16.112 3.38401 16.136 3.38401C19.208 3.38401 21.824 3.81601 23.984 4.68001C26.168 5.54401 27.836 6.79201 28.988 8.42401C30.14 10.056 30.716 12.036 30.716 14.364C30.716 16.668 30.14 18.648 28.988 20.304C27.86 21.936 26.216 23.184 24.056 24.048C21.92 24.888 19.328 25.308 16.28 25.308C16.232 25.308 16.124 25.308 15.956 25.308C15.812 25.308 15.668 25.308 15.524 25.308C15.38 25.308 15.284 25.308 15.236 25.308ZM15.632 22.5C15.68 22.5 15.74 22.5 15.812 22.5C15.884 22.5 15.92 22.5 15.92 22.5C18.368 22.476 20.432 22.164 22.112 21.564C23.792 20.94 25.064 20.028 25.928 18.828C26.816 17.604 27.26 16.104 27.26 14.328C27.26 12.576 26.816 11.1 25.928 9.90001C25.04 8.70001 23.756 7.78801 22.076 7.16401C20.42 6.54001 18.392 6.22801 15.992 6.22801C15.968 6.22801 15.908 6.22801 15.812 6.22801C15.74 6.22801 15.68 6.22801 15.632 6.22801C13.16 6.22801 11.06 6.54001 9.332 7.16401C7.628 7.76401 6.332 8.66401 5.444 9.86401C4.556 11.064 4.112 12.564 4.112 14.364C4.112 16.164 4.568 17.664 5.48 18.864C6.392 20.064 7.7 20.976 9.404 21.6C11.132 22.2 13.208 22.5 15.632 22.5ZM14.012 27.936V0.864014H17.36V27.936H14.012Z" fill="white"/>
<path d="M47.3761 27V22.968L47.1961 22.212V15.336C47.1961 13.872 46.7641 12.744 45.9001 11.952C45.0601 11.136 43.7881 10.728 42.0841 10.728C40.9561 10.728 39.8521 10.92 38.7721 11.304C37.6921 11.664 36.7801 12.156 36.0361 12.78L34.5961 10.188C35.5801 9.39601 36.7561 8.79601 38.1241 8.38801C39.5161 7.95601 40.9681 7.74001 42.4801 7.74001C45.0961 7.74001 47.1121 8.37601 48.5281 9.64801C49.9441 10.92 50.6521 12.864 50.6521 15.48V27H47.3761ZM41.1121 27.216C39.6961 27.216 38.4481 26.976 37.3681 26.496C36.3121 26.016 35.4961 25.356 34.9201 24.516C34.3441 23.652 34.0561 22.68 34.0561 21.6C34.0561 20.568 34.2961 19.632 34.7761 18.792C35.2801 17.952 36.0841 17.28 37.1881 16.776C38.3161 16.272 39.8281 16.02 41.7241 16.02H47.7721V18.504H41.8681C40.1401 18.504 38.9761 18.792 38.3761 19.368C37.7761 19.944 37.4761 20.64 37.4761 21.456C37.4761 22.392 37.8481 23.148 38.5921 23.724C39.3361 24.276 40.3681 24.552 41.6881 24.552C42.9841 24.552 44.1121 24.264 45.0721 23.688C46.0561 23.112 46.7641 22.272 47.1961 21.168L47.8801 23.544C47.4241 24.672 46.6201 25.572 45.4681 26.244C44.3161 26.892 42.8641 27.216 41.1121 27.216Z" fill="white"/>
<path d="M56.8753 27V7.92001H65.7313C67.9633 7.92001 69.7153 8.35201 70.9873 9.21601C72.2833 10.056 72.9313 11.256 72.9313 12.816C72.9313 14.376 72.3193 15.588 71.0953 16.452C69.8953 17.292 68.2993 17.712 66.3073 17.712L66.8473 16.776C69.1273 16.776 70.8193 17.196 71.9233 18.036C73.0273 18.876 73.5793 20.112 73.5793 21.744C73.5793 23.4 72.9553 24.696 71.7073 25.632C70.4833 26.544 68.5993 27 66.0553 27H56.8753ZM60.2593 24.336H65.8033C67.2433 24.336 68.3233 24.12 69.0433 23.688C69.7633 23.232 70.1233 22.512 70.1233 21.528C70.1233 20.52 69.7873 19.788 69.1153 19.332C68.4673 18.852 67.4353 18.612 66.0193 18.612H60.2593V24.336ZM60.2593 16.128H65.4433C66.7633 16.128 67.7593 15.888 68.4313 15.408C69.1273 14.904 69.4753 14.208 69.4753 13.32C69.4753 12.408 69.1273 11.724 68.4313 11.268C67.7593 10.812 66.7633 10.584 65.4433 10.584H60.2593V16.128Z" fill="white"/>
<path d="M87.1606 27.216C85.2406 27.216 83.5366 26.796 82.0486 25.956C80.5606 25.116 79.3846 23.964 78.5206 22.5C77.6566 21.012 77.2246 19.332 77.2246 17.46C77.2246 15.564 77.6566 13.884 78.5206 12.42C79.3846 10.956 80.5606 9.81601 82.0486 9.00001C83.5366 8.16001 85.2406 7.74001 87.1606 7.74001C89.0566 7.74001 90.7486 8.16001 92.2366 9.00001C93.7486 9.81601 94.9246 10.956 95.7646 12.42C96.6286 13.86 97.0606 15.54 97.0606 17.46C97.0606 19.356 96.6286 21.036 95.7646 22.5C94.9246 23.964 93.7486 25.116 92.2366 25.956C90.7486 26.796 89.0566 27.216 87.1606 27.216ZM87.1606 24.192C88.3846 24.192 89.4766 23.916 90.4366 23.364C91.4206 22.812 92.1886 22.032 92.7406 21.024C93.2926 19.992 93.5686 18.804 93.5686 17.46C93.5686 16.092 93.2926 14.916 92.7406 13.932C92.1886 12.924 91.4206 12.144 90.4366 11.592C89.4766 11.04 88.3846 10.764 87.1606 10.764C85.9366 10.764 84.8446 11.04 83.8846 11.592C82.9246 12.144 82.1566 12.924 81.5806 13.932C81.0046 14.916 80.7166 16.092 80.7166 17.46C80.7166 18.804 81.0046 19.992 81.5806 21.024C82.1566 22.032 82.9246 22.812 83.8846 23.364C84.8446 23.916 85.9366 24.192 87.1606 24.192Z" fill="white"/>
<path d="M112.167 27.216C110.583 27.216 109.131 26.856 107.811 26.136C106.515 25.392 105.471 24.3 104.679 22.86C103.911 21.42 103.527 19.62 103.527 17.46C103.527 15.3 103.899 13.5 104.643 12.06C105.411 10.62 106.443 9.54001 107.739 8.82001C109.059 8.10001 110.535 7.74001 112.167 7.74001C114.039 7.74001 115.695 8.14801 117.135 8.96401C118.575 9.78001 119.715 10.92 120.555 12.384C121.395 13.824 121.815 15.516 121.815 17.46C121.815 19.404 121.395 21.108 120.555 22.572C119.715 24.036 118.575 25.176 117.135 25.992C115.695 26.808 114.039 27.216 112.167 27.216ZM102.051 33.984V7.92001H105.363V13.068L105.147 17.496L105.507 21.924V33.984H102.051ZM111.879 24.192C113.103 24.192 114.195 23.916 115.155 23.364C116.139 22.812 116.907 22.032 117.459 21.024C118.035 19.992 118.323 18.804 118.323 17.46C118.323 16.092 118.035 14.916 117.459 13.932C116.907 12.924 116.139 12.144 115.155 11.592C114.195 11.04 113.103 10.764 111.879 10.764C110.679 10.764 109.587 11.04 108.603 11.592C107.643 12.144 106.875 12.924 106.299 13.932C105.747 14.916 105.471 16.092 105.471 17.46C105.471 18.804 105.747 19.992 106.299 21.024C106.875 22.032 107.643 22.812 108.603 23.364C109.587 23.916 110.679 24.192 111.879 24.192Z" fill="white"/>
<path d="M126.836 27V7.92001H130.292V21.816L141.992 7.92001H145.124V27H141.668V13.104L130.004 27H126.836Z" fill="white"/>
<path d="M155.612 27V10.044L156.476 10.944H148.628V7.92001H166.052V10.944H158.24L159.068 10.044V27H155.612Z" fill="white"/>
</svg>
